<svg width="20" height="19" viewBox="0 0 20 19" fill="none" xmlns="http://www.w3.org/2000/svg">
<path d="M14.3197 1.72401C15.3842 1.72707 16.4042 2.13565 17.157 2.86052C17.9097 3.58539 18.334 4.56764 18.3372 5.59275V13.3294C18.334 14.3545 17.9097 15.3368 17.157 16.0616C16.4042 16.7865 15.3842 17.1951 14.3197 17.1982H6.28543C5.22089 17.1951 4.20086 16.7865 3.44811 16.0616C2.69537 15.3368 2.27107 14.3545 2.26789 13.3294V5.59275C2.27107 4.56764 2.69537 3.58539 3.44811 2.86052C4.20086 2.13565 5.22089 1.72707 6.28543 1.72401H14.3197ZM14.3197 0.176758H6.28543C3.192 0.176758 0.661133 2.61389 0.661133 5.59275V13.3294C0.661133 16.3083 3.192 18.7454 6.28543 18.7454H14.3197C17.4131 18.7454 19.944 16.3083 19.944 13.3294V5.59275C19.944 2.61389 17.4131 0.176758 14.3197 0.176758Z" fill="#274C5B"/>
<path d="M15.5249 5.59354C15.2866 5.59354 15.0536 5.52548 14.8554 5.39796C14.6572 5.27043 14.5027 5.08918 14.4115 4.87712C14.3203 4.66506 14.2964 4.43171 14.3429 4.20659C14.3894 3.98147 14.5042 3.77468 14.6727 3.61238C14.8413 3.45007 15.056 3.33954 15.2898 3.29476C15.5236 3.24998 15.7659 3.27296 15.9861 3.3608C16.2063 3.44864 16.3946 3.59739 16.527 3.78824C16.6594 3.97909 16.7301 4.20347 16.7301 4.433C16.7304 4.5855 16.6995 4.73656 16.6391 4.87751C16.5786 5.01846 16.4899 5.14653 16.3779 5.25436C16.2659 5.36219 16.1329 5.44766 15.9865 5.50587C15.8402 5.56408 15.6833 5.59387 15.5249 5.59354ZM10.3026 6.36696C10.9383 6.36696 11.5597 6.54847 12.0882 6.88855C12.6167 7.22862 13.0287 7.71198 13.2719 8.2775C13.5152 8.84302 13.5788 9.46531 13.4548 10.0657C13.3308 10.666 13.0247 11.2175 12.5752 11.6503C12.1258 12.0831 11.5531 12.3779 10.9297 12.4973C10.3062 12.6167 9.65999 12.5554 9.07272 12.3212C8.48544 12.087 7.98349 11.6903 7.63034 11.1813C7.27719 10.6724 7.08869 10.074 7.08869 9.46187C7.08961 8.64132 7.42851 7.85463 8.03104 7.27441C8.63358 6.69419 9.45053 6.36784 10.3026 6.36696ZM10.3026 4.81971C9.3492 4.81971 8.41716 5.09197 7.6244 5.60206C6.83164 6.11214 6.21376 6.83715 5.84889 7.68539C5.48402 8.53364 5.38856 9.46702 5.57456 10.3675C5.76057 11.268 6.2197 12.0952 6.89389 12.7444C7.56808 13.3936 8.42704 13.8357 9.36217 14.0148C10.2973 14.194 11.2666 14.102 12.1474 13.7507C13.0283 13.3993 13.7812 12.8043 14.3109 12.0409C14.8406 11.2775 15.1233 10.38 15.1233 9.46187C15.1233 8.23069 14.6155 7.04994 13.7114 6.17937C12.8073 5.30879 11.5812 4.81971 10.3026 4.81971Z" fill="#274C5B"/>
</svg>
