<svg width="173" height="57" viewBox="0 0 173 57" fill="none" xmlns="http://www.w3.org/2000/svg">
<path d="M61.7188 28.5938V29.6719C61.7188 31.401 61.4844 32.9531 61.0156 34.3281C60.5469 35.7031 59.8854 36.875 59.0312 37.8438C58.1771 38.8021 57.1562 39.5365 55.9688 40.0469C54.7917 40.5573 53.4844 40.8125 52.0469 40.8125C50.6198 40.8125 49.3125 40.5573 48.125 40.0469C46.9479 39.5365 45.9271 38.8021 45.0625 37.8438C44.1979 36.875 43.526 35.7031 43.0469 34.3281C42.5781 32.9531 42.3438 31.401 42.3438 29.6719V28.5938C42.3438 26.8542 42.5781 25.3021 43.0469 23.9375C43.5156 22.5625 44.1771 21.3906 45.0312 20.4219C45.8958 19.4531 46.9167 18.7135 48.0938 18.2031C49.2812 17.6927 50.5885 17.4375 52.0156 17.4375C53.4531 17.4375 54.7604 17.6927 55.9375 18.2031C57.125 18.7135 58.1458 19.4531 59 20.4219C59.8646 21.3906 60.5312 22.5625 61 23.9375C61.4792 25.3021 61.7188 26.8542 61.7188 28.5938ZM56.9844 29.6719V28.5625C56.9844 27.3542 56.875 26.2917 56.6562 25.375C56.4375 24.4583 56.1146 23.6875 55.6875 23.0625C55.2604 22.4375 54.7396 21.9688 54.125 21.6562C53.5104 21.3333 52.8073 21.1719 52.0156 21.1719C51.224 21.1719 50.5208 21.3333 49.9062 21.6562C49.3021 21.9688 48.7865 22.4375 48.3594 23.0625C47.9427 23.6875 47.625 24.4583 47.4062 25.375C47.1875 26.2917 47.0781 27.3542 47.0781 28.5625V29.6719C47.0781 30.8698 47.1875 31.9323 47.4062 32.8594C47.625 33.776 47.9479 34.5521 48.375 35.1875C48.8021 35.8125 49.3229 36.2865 49.9375 36.6094C50.5521 36.9323 51.2552 37.0938 52.0469 37.0938C52.8385 37.0938 53.5417 36.9323 54.1562 36.6094C54.7708 36.2865 55.2865 35.8125 55.7031 35.1875C56.1198 34.5521 56.4375 33.776 56.6562 32.8594C56.875 31.9323 56.9844 30.8698 56.9844 29.6719ZM69.3125 27.2812V40.5H64.8125V23.5938H69.0469L69.3125 27.2812ZM74.4062 23.4844L74.3281 27.6562C74.1094 27.625 73.8438 27.599 73.5312 27.5781C73.2292 27.5469 72.9531 27.5312 72.7031 27.5312C72.0677 27.5312 71.5156 27.6146 71.0469 27.7812C70.5885 27.9375 70.2031 28.1719 69.8906 28.4844C69.5885 28.7969 69.3594 29.1771 69.2031 29.625C69.0573 30.0729 68.974 30.5833 68.9531 31.1562L68.0469 30.875C68.0469 29.7812 68.1562 28.776 68.375 27.8594C68.5938 26.9323 68.9115 26.125 69.3281 25.4375C69.7552 24.75 70.276 24.2188 70.8906 23.8438C71.5052 23.4688 72.2083 23.2812 73 23.2812C73.25 23.2812 73.5052 23.3021 73.7656 23.3438C74.026 23.375 74.2396 23.4219 74.4062 23.4844ZM86.9219 23.5938H91V39.9375C91 41.4792 90.6562 42.7865 89.9688 43.8594C89.2917 44.9427 88.3438 45.7604 87.125 46.3125C85.9062 46.875 84.4896 47.1562 82.875 47.1562C82.1667 47.1562 81.4167 47.0625 80.625 46.875C79.8438 46.6875 79.0938 46.3958 78.375 46C77.6667 45.6042 77.0729 45.1042 76.5938 44.5L78.5781 41.8438C79.099 42.4479 79.7031 42.9167 80.3906 43.25C81.0781 43.5938 81.8385 43.7656 82.6719 43.7656C83.4844 43.7656 84.1719 43.6146 84.7344 43.3125C85.2969 43.0208 85.7292 42.5885 86.0312 42.0156C86.3333 41.4531 86.4844 40.7708 86.4844 39.9688V27.5L86.9219 23.5938ZM75.5469 32.25V31.9219C75.5469 30.6302 75.7031 29.4583 76.0156 28.4062C76.3385 27.3438 76.7917 26.4323 77.375 25.6719C77.9688 24.9115 78.6875 24.3229 79.5312 23.9062C80.375 23.4896 81.3281 23.2812 82.3906 23.2812C83.5156 23.2812 84.4583 23.4896 85.2188 23.9062C85.9792 24.3229 86.6042 24.9167 87.0938 25.6875C87.5833 26.4479 87.9635 27.349 88.2344 28.3906C88.5156 29.4219 88.7344 30.5521 88.8906 31.7812V32.5C88.7344 33.6771 88.5 34.7708 88.1875 35.7812C87.875 36.7917 87.4635 37.6771 86.9531 38.4375C86.4427 39.1875 85.8073 39.7708 85.0469 40.1875C84.2969 40.6042 83.401 40.8125 82.3594 40.8125C81.3177 40.8125 80.375 40.599 79.5312 40.1719C78.6979 39.7448 77.9844 39.1458 77.3906 38.375C76.7969 37.6042 76.3385 36.6979 76.0156 35.6562C75.7031 34.6146 75.5469 33.4792 75.5469 32.25ZM80.0469 31.9219V32.25C80.0469 32.9479 80.1146 33.599 80.25 34.2031C80.3854 34.8073 80.5938 35.3438 80.875 35.8125C81.1667 36.2708 81.526 36.6302 81.9531 36.8906C82.3906 37.1406 82.9062 37.2656 83.5 37.2656C84.3229 37.2656 84.9948 37.0938 85.5156 36.75C86.0365 36.3958 86.4271 35.9115 86.6875 35.2969C86.9479 34.6823 87.099 33.974 87.1406 33.1719V31.125C87.1198 30.4688 87.0312 29.8802 86.875 29.3594C86.7188 28.8281 86.5 28.375 86.2188 28C85.9375 27.625 85.5729 27.3333 85.125 27.125C84.6771 26.9167 84.1458 26.8125 83.5312 26.8125C82.9375 26.8125 82.4219 26.9479 81.9844 27.2188C81.5573 27.4792 81.1979 27.8385 80.9062 28.2969C80.625 28.7552 80.4115 29.2969 80.2656 29.9219C80.1198 30.5365 80.0469 31.2031 80.0469 31.9219ZM103.625 36.6875V29.1562C103.625 28.6146 103.536 28.151 103.359 27.7656C103.182 27.3698 102.906 27.0625 102.531 26.8438C102.167 26.625 101.693 26.5156 101.109 26.5156C100.609 26.5156 100.177 26.6042 99.8125 26.7812C99.4479 26.9479 99.1667 27.1927 98.9688 27.5156C98.7708 27.8281 98.6719 28.1979 98.6719 28.625H94.1719C94.1719 27.9062 94.3385 27.224 94.6719 26.5781C95.0052 25.9323 95.4896 25.3646 96.125 24.875C96.7604 24.375 97.5156 23.9844 98.3906 23.7031C99.276 23.4219 100.266 23.2812 101.359 23.2812C102.672 23.2812 103.839 23.5 104.859 23.9375C105.88 24.375 106.682 25.0312 107.266 25.9062C107.859 26.7812 108.156 27.875 108.156 29.1875V36.4219C108.156 37.349 108.214 38.1094 108.328 38.7031C108.443 39.2865 108.609 39.7969 108.828 40.2344V40.5H104.281C104.062 40.0417 103.896 39.4688 103.781 38.7812C103.677 38.0833 103.625 37.3854 103.625 36.6875ZM104.219 30.2031L104.25 32.75H101.734C101.141 32.75 100.625 32.8177 100.188 32.9531C99.75 33.0885 99.3906 33.2812 99.1094 33.5312C98.8281 33.7708 98.6198 34.0521 98.4844 34.375C98.3594 34.6979 98.2969 35.0521 98.2969 35.4375C98.2969 35.8229 98.3854 36.1719 98.5625 36.4844C98.7396 36.7865 98.9948 37.026 99.3281 37.2031C99.6615 37.3698 100.052 37.4531 100.5 37.4531C101.177 37.4531 101.766 37.3177 102.266 37.0469C102.766 36.776 103.151 36.4427 103.422 36.0469C103.703 35.651 103.849 35.276 103.859 34.9219L105.047 36.8281C104.88 37.2552 104.651 37.6979 104.359 38.1562C104.078 38.6146 103.719 39.0469 103.281 39.4531C102.844 39.849 102.318 40.1771 101.703 40.4375C101.089 40.6875 100.359 40.8125 99.5156 40.8125C98.4427 40.8125 97.4688 40.599 96.5938 40.1719C95.7292 39.7344 95.0417 39.1354 94.5312 38.375C94.0312 37.6042 93.7812 36.7292 93.7812 35.75C93.7812 34.8646 93.9479 34.0781 94.2812 33.3906C94.6146 32.7031 95.1042 32.125 95.75 31.6562C96.4062 31.1771 97.224 30.8177 98.2031 30.5781C99.1823 30.3281 100.318 30.2031 101.609 30.2031H104.219ZM116.031 27.2031V40.5H111.531V23.5938H115.75L116.031 27.2031ZM115.375 31.4531H114.156C114.156 30.2031 114.318 29.0781 114.641 28.0781C114.964 27.0677 115.417 26.2083 116 25.5C116.583 24.7812 117.276 24.2344 118.078 23.8594C118.891 23.474 119.797 23.2812 120.797 23.2812C121.589 23.2812 122.312 23.3958 122.969 23.625C123.625 23.8542 124.188 24.2188 124.656 24.7188C125.135 25.2188 125.5 25.8802 125.75 26.7031C126.01 27.526 126.141 28.5312 126.141 29.7188V40.5H121.609V29.7031C121.609 28.9531 121.505 28.3698 121.297 27.9531C121.089 27.5365 120.781 27.2448 120.375 27.0781C119.979 26.901 119.49 26.8125 118.906 26.8125C118.302 26.8125 117.776 26.9323 117.328 27.1719C116.891 27.4115 116.526 27.7448 116.234 28.1719C115.953 28.5885 115.74 29.0781 115.594 29.6406C115.448 30.2031 115.375 30.8073 115.375 31.4531ZM134.312 23.5938V40.5H129.797V23.5938H134.312ZM129.516 19.1875C129.516 18.5312 129.745 17.9896 130.203 17.5625C130.661 17.1354 131.276 16.9219 132.047 16.9219C132.807 16.9219 133.417 17.1354 133.875 17.5625C134.344 17.9896 134.578 18.5312 134.578 19.1875C134.578 19.8438 134.344 20.3854 133.875 20.8125C133.417 21.2396 132.807 21.4531 132.047 21.4531C131.276 21.4531 130.661 21.2396 130.203 20.8125C129.745 20.3854 129.516 19.8438 129.516 19.1875ZM145.016 37.2969C145.568 37.2969 146.057 37.1927 146.484 36.9844C146.911 36.7656 147.245 36.4635 147.484 36.0781C147.734 35.6823 147.865 35.2188 147.875 34.6875H152.109C152.099 35.875 151.781 36.9323 151.156 37.8594C150.531 38.776 149.693 39.5 148.641 40.0312C147.589 40.5521 146.411 40.8125 145.109 40.8125C143.797 40.8125 142.651 40.5938 141.672 40.1562C140.703 39.7188 139.896 39.1146 139.25 38.3438C138.604 37.5625 138.12 36.6562 137.797 35.625C137.474 34.5833 137.312 33.4688 137.312 32.2812V31.8281C137.312 30.6302 137.474 29.5156 137.797 28.4844C138.12 27.4427 138.604 26.5365 139.25 25.7656C139.896 24.9844 140.703 24.375 141.672 23.9375C142.641 23.5 143.776 23.2812 145.078 23.2812C146.464 23.2812 147.677 23.5469 148.719 24.0781C149.771 24.6094 150.594 25.3698 151.188 26.3594C151.792 27.3385 152.099 28.5 152.109 29.8438H147.875C147.865 29.2812 147.745 28.7708 147.516 28.3125C147.297 27.8542 146.974 27.4896 146.547 27.2188C146.13 26.9375 145.615 26.7969 145 26.7969C144.344 26.7969 143.807 26.9375 143.391 27.2188C142.974 27.4896 142.651 27.8646 142.422 28.3438C142.193 28.8125 142.031 29.349 141.938 29.9531C141.854 30.5469 141.812 31.1719 141.812 31.8281V32.2812C141.812 32.9375 141.854 33.5677 141.938 34.1719C142.021 34.776 142.177 35.3125 142.406 35.7812C142.646 36.25 142.974 36.6198 143.391 36.8906C143.807 37.1615 144.349 37.2969 145.016 37.2969ZM159.219 16.4844V40.5H154.719V16.4844H159.219ZM169.875 23.5938L162.531 31.9688L158.594 35.9531L156.953 32.7031L160.078 28.7344L164.469 23.5938H169.875ZM165.203 40.5L160.203 32.6875L163.312 29.9688L170.391 40.5H165.203Z" fill="#274C5B"/>
<path d="M1.72949 41.5457H16.6698H31.6102" stroke="#7EB693" stroke-width="2" stroke-miterlimit="10"/>
<path d="M5.10352 47.8389L16.6684 47.8389L28.2333 47.8389" stroke="#7EB693" stroke-width="2" stroke-miterlimit="10"/>
<path d="M16.2402 1.84961L16.2402 8.69899L16.2402 15.5484" stroke="#7EB693" stroke-width="2" stroke-miterlimit="10"/>
<path d="M16.3047 14.8486V40.7115" stroke="#7EB693" stroke-width="2" stroke-miterlimit="10"/>
<path d="M25.7791 4.83594L16.3047 15.6817" stroke="#7EB693" stroke-width="2" stroke-miterlimit="10"/>
<path d="M29.423 9.00977L16.3047 24.0269" stroke="#7EB693" stroke-width="2" stroke-miterlimit="10"/>
<path d="M31.6094 15.6826L16.3047 32.3683" stroke="#7EB693" stroke-width="2" stroke-miterlimit="10"/>
<path d="M32.3382 23.1904L16.3047 41.5447" stroke="#7EB693" stroke-width="2" stroke-miterlimit="10"/>
<path d="M32.3374 31.5352L23.5918 41.5466" stroke="#7EB693" stroke-width="2" stroke-miterlimit="10"/>
<path d="M1 31.535L9.74557 41.5465" stroke="#7EB693" stroke-width="2" stroke-miterlimit="10"/>
<path d="M7.55957 4.83594L16.3051 15.6817" stroke="#7EB693" stroke-width="2" stroke-miterlimit="10"/>
<path d="M3.91406 9.00977L16.3036 24.0269" stroke="#7EB693" stroke-width="2" stroke-miterlimit="10"/>
<path d="M1.72949 14.8485L16.3054 32.3685" stroke="#7EB693" stroke-width="2" stroke-miterlimit="10"/>
<path d="M1 22.3574L16.3048 40.7117" stroke="#7EB693" stroke-width="2" stroke-miterlimit="10"/>
<path d="M16.6692 54.06C8.01618 54.06 1 45.7896 1 35.5856V19.9744C1 9.77229 8.01618 1.5 16.6692 1.5C25.3237 1.5 32.3383 9.77229 32.3383 19.9744V35.5856C32.3399 45.7896 25.3237 54.06 16.6692 54.06Z" stroke="#7EB693" stroke-width="2" stroke-miterlimit="10"/>
</svg>
