<svg width="21" height="20" viewBox="0 0 21 20" fill="none" xmlns="http://www.w3.org/2000/svg">
<path d="M10.4578 0.176758C5.04775 0.176758 0.661133 4.56142 0.661133 9.96902C0.661133 13.9777 3.0753 17.4225 6.52599 18.9394C6.49975 18.2575 6.52162 17.4356 6.69656 16.6925C6.88462 15.8968 7.95613 11.3548 7.95613 11.3548C7.95613 11.3548 7.64124 10.7297 7.64124 9.80728C7.64124 8.35592 8.48095 7.27178 9.53059 7.27178C10.4228 7.27178 10.8514 7.94063 10.8514 8.74062C10.8514 9.63679 10.2785 10.9745 9.98543 12.216C9.74052 13.2564 10.5059 14.1001 11.5337 14.1001C13.388 14.1001 14.6388 11.7176 14.6388 8.89362C14.6388 6.74719 13.1912 5.14284 10.5627 5.14284C7.59313 5.14284 5.73876 7.35921 5.73876 9.83351C5.73876 10.686 5.99243 11.2892 6.38604 11.7526C6.56536 11.9668 6.5916 12.0543 6.52599 12.2991C6.47789 12.4783 6.37292 12.9111 6.32481 13.0859C6.25921 13.3351 6.05803 13.4225 5.83498 13.3307C4.46608 12.7712 3.82755 11.2761 3.82755 9.5887C3.82755 6.8084 6.17611 3.4729 10.8295 3.4729C14.5689 3.4729 17.0311 6.17889 17.0311 9.0816C17.0311 12.9242 14.8925 15.7919 11.7436 15.7919C10.6852 15.7919 9.69241 15.2193 9.35128 14.5723C9.35128 14.5723 8.78272 16.828 8.66026 17.2651C8.45471 18.0214 8.04797 18.7733 7.67623 19.3635C8.57799 19.6294 9.51321 19.7648 10.4534 19.7657C15.8634 19.7657 20.25 15.381 20.25 9.9734C20.25 4.56579 15.8678 0.176758 10.4578 0.176758Z" fill="#274C5B"/>
</svg>
