<svg width="15" height="14" viewBox="0 0 15 14" fill="none" xmlns="http://www.w3.org/2000/svg">
<path d="M14.1024 11.8076L11.0169 8.83219C11.7597 7.87856 12.1608 6.7178 12.1594 5.5251C12.1594 2.47858 9.58904 0 6.42968 0C3.27033 0 0.699951 2.47858 0.699951 5.5251C0.699951 8.57162 3.27033 11.0502 6.42968 11.0502C7.66656 11.0515 8.87031 10.6648 9.85926 9.94847L12.9448 12.9238C13.101 13.0585 13.3047 13.1303 13.5142 13.1247C13.7236 13.119 13.9228 13.0363 14.0709 12.8934C14.2191 12.7506 14.3049 12.5585 14.3107 12.3566C14.3166 12.1546 14.2421 11.9582 14.1024 11.8076ZM2.33702 5.5251C2.33702 4.74456 2.57705 3.98154 3.02676 3.33254C3.47646 2.68354 4.11565 2.17771 4.86349 1.87901C5.61133 1.58031 6.43422 1.50215 7.22812 1.65443C8.02202 1.80671 8.75127 2.18257 9.32364 2.7345C9.89601 3.28643 10.2858 3.98963 10.4437 4.75518C10.6016 5.52072 10.5206 6.31423 10.2108 7.03536C9.90105 7.75649 9.37648 8.37285 8.70345 8.80649C8.03041 9.24014 7.23914 9.4716 6.42968 9.4716C5.34464 9.47034 4.30441 9.05415 3.53717 8.31431C2.76993 7.57447 2.33832 6.57139 2.33702 5.5251Z" fill="#FAFAFA"/>
</svg>
