<svg width="22" height="17" viewBox="0 0 22 17" fill="none" xmlns="http://www.w3.org/2000/svg">
<path d="M21.3213 2.13518C20.5463 2.47192 19.7263 2.69377 18.8873 2.79372C19.7691 2.27738 20.4322 1.45708 20.7523 0.486667C19.9186 0.974158 19.008 1.3162 18.0596 1.49815C17.6602 1.07958 17.1799 0.7466 16.6478 0.519442C16.1157 0.292284 15.543 0.175696 14.9644 0.176765C12.6221 0.176765 10.7265 2.04479 10.7265 4.34754C10.7248 4.66784 10.7616 4.98719 10.8358 5.29876C9.1562 5.22002 7.5115 4.79155 6.00694 4.04076C4.50239 3.28996 3.17112 2.23338 2.09831 0.938609C1.72194 1.5731 1.52289 2.29703 1.52197 3.03475C1.52197 4.48097 2.2765 5.75931 3.41582 6.50825C2.74081 6.49223 2.07962 6.31357 1.4884 5.98744V6.03909C1.4884 8.06206 2.95183 9.74501 4.88872 10.1281C4.52449 10.2252 4.14916 10.2744 3.77221 10.2744C3.50474 10.2749 3.23787 10.2489 2.9755 10.1969C3.51396 11.8541 5.08112 13.0592 6.93752 13.0937C5.42906 14.2562 3.57707 14.8845 1.67262 14.8799C1.33458 14.8794 0.996846 14.8593 0.661133 14.8197C2.59853 16.0568 4.8506 16.7112 7.14929 16.7049C14.9554 16.7049 19.22 10.3476 19.22 4.83391C19.22 4.65313 19.2153 4.47236 19.2066 4.29589C20.0344 3.7071 20.7505 2.9754 21.3213 2.13518Z" fill="#274C5B"/>
</svg>
